{
	"asset":{
		"generator":"Khronos glTF Blender I/O v4.4.55",
		"version":"2.0"
	},
	"scene":0,
	"scenes":[
		{
			"name":"Scene",
			"nodes":[
				0,
				1,
				2,
				3
			]
		}
	],
	"nodes":[
		{
			"mesh":0,
			"name":"guitarraBoy2",
			"scale":[
				2.0,
				2.0,
				2.0
			]
		},
		{
			"mesh":1,
			"name":"Glasses-front",
			"rotation":[
				-0.051548946648836136,
				-0.7312787175178528,
				0.678443431854248,
				0.04783951863646507
			],
			"scale":[
				0.029999999329447746,
				0.030000001192092896,
				0.029999999329447746
			],
			"translation":[
				-2.2917118072509766,
				26.885356903076172,
				2.55635142326355
			]
		},
		{
			"mesh":2,
			"name":"Glasses_temple-Left_part",
			"rotation":[
				0.45548298954963684,
				-0.5856221318244934,
				0.44057193398475647,
				0.5054486393928528
			],
			"scale":[
				0.030000029131770134,
				0.030000029131770134,
				0.030000029131770134
			],
			"translation":[
				-0.022887229919433594,
				26.621362686157227,
				0.5727651119232178
			]
		},
		{
			"mesh":3,
			"name":"Glasses_temple-Right_part",
			"rotation":[
				0.5446404814720154,
				0.5356181859970093,
				-0.506741464138031,
				0.3996161222457886
			],
			"scale":[
				0.030000029131770134,
				0.030000029131770134,
				0.030000030994415283
			],
			"translation":[
				-4.396279335021973,
				26.765050888061523,
				4.269097328186035
			]
		}
	],
	"materials":[
		{
			"doubleSided":true,
			"name":"Material.001",
			"pbrMetallicRoughness":{
				"baseColorFactor":[
					0.800000011920929,
					0.800000011920929,
					0.800000011920929,
					1
				],
				"metallicFactor":0,
				"roughnessFactor":0.5
			}
		},
		{
			"doubleSided":true,
			"name":"Material",
			"pbrMetallicRoughness":{
				"baseColorFactor":[
					0.800000011920929,
					0.800000011920929,
					0.800000011920929,
					1
				],
				"metallicFactor":0,
				"roughnessFactor":0.5
			}
		}
	],
	"meshes":[
		{
			"name":"guitarraBoy2",
			"primitives":[
				{
					"attributes":{
						"POSITION":0,
						"NORMAL":1,
						"COLOR_0":2
					},
					"indices":3
				}
			]
		},
		{
			"name":"Glasses-front",
			"primitives":[
				{
					"attributes":{
						"POSITION":4,
						"NORMAL":5,
						"COLOR_0":6
					},
					"indices":7
				}
			]
		},
		{
			"name":"Glasses_temple-Left_part",
			"primitives":[
				{
					"attributes":{
						"POSITION":8,
						"NORMAL":9,
						"COLOR_0":10,
						"COLOR_1":11
					},
					"indices":12,
					"material":0
				}
			]
		},
		{
			"name":"Glasses_temple-Right_part.002",
			"primitives":[
				{
					"attributes":{
						"POSITION":13,
						"NORMAL":14,
						"COLOR_0":15,
						"COLOR_1":16
					},
					"indices":17,
					"material":1
				}
			]
		}
	],
	"accessors":[
		{
			"bufferView":0,
			"componentType":5126,
			"count":44913,
			"max":[
				0.9484594464302063,
				1.5501692295074463,
				0.4208362400531769
			],
			"min":[
				-0.9459872841835022,
				0.008050368167459965,
				-0.4129142165184021
			],
			"type":"VEC3"
		},
		{
			"bufferView":1,
			"componentType":5126,
			"count":44913,
			"type":"VEC3"
		},
		{
			"bufferView":2,
			"componentType":5123,
			"count":44913,
			"normalized":true,
			"type":"VEC4"
		},
		{
			"bufferView":3,
			"componentType":5123,
			"count":59814,
			"type":"SCALAR"
		},
		{
			"bufferView":4,
			"componentType":5126,
			"count":31436,
			"max":[
				73.78443908691406,
				8.96774673461914,
				19.11944580078125
			],
			"min":[
				-73.78443908691406,
				-1,
				-20.714487075805664
			],
			"type":"VEC3"
		},
		{
			"bufferView":5,
			"componentType":5126,
			"count":31436,
			"type":"VEC3"
		},
		{
			"bufferView":6,
			"componentType":5123,
			"count":31436,
			"normalized":true,
			"type":"VEC4"
		},
		{
			"bufferView":7,
			"componentType":5123,
			"count":37404,
			"type":"SCALAR"
		},
		{
			"bufferView":8,
			"componentType":5126,
			"count":4156,
			"max":[
				61.84712219238281,
				5.897268772125244,
				11.017817497253418
			],
			"min":[
				-68.24725341796875,
				0,
				-18.062183380126953
			],
			"type":"VEC3"
		},
		{
			"bufferView":9,
			"componentType":5126,
			"count":4156,
			"type":"VEC3"
		},
		{
			"bufferView":10,
			"componentType":5121,
			"count":4156,
			"normalized":true,
			"type":"VEC4"
		},
		{
			"bufferView":11,
			"componentType":5123,
			"count":4156,
			"normalized":true,
			"type":"VEC4"
		},
		{
			"bufferView":12,
			"componentType":5123,
			"count":5820,
			"type":"SCALAR"
		},
		{
			"bufferView":13,
			"componentType":5126,
			"count":4365,
			"max":[
				191.9463348388672,
				5.897268772125244,
				11.017817497253418
			],
			"min":[
				61.84712219238281,
				0,
				-18.062183380126953
			],
			"type":"VEC3"
		},
		{
			"bufferView":14,
			"componentType":5126,
			"count":4365,
			"type":"VEC3"
		},
		{
			"bufferView":15,
			"componentType":5121,
			"count":4365,
			"normalized":true,
			"type":"VEC4"
		},
		{
			"bufferView":16,
			"componentType":5123,
			"count":4365,
			"normalized":true,
			"type":"VEC4"
		},
		{
			"bufferView":17,
			"componentType":5123,
			"count":5820,
			"type":"SCALAR"
		}
	],
	"bufferViews":[
		{
			"buffer":0,
			"byteLength":538956,
			"byteOffset":0,
			"target":34962
		},
		{
			"buffer":0,
			"byteLength":538956,
			"byteOffset":538956,
			"target":34962
		},
		{
			"buffer":0,
			"byteLength":359304,
			"byteOffset":1077912,
			"target":34962
		},
		{
			"buffer":0,
			"byteLength":119628,
			"byteOffset":1437216,
			"target":34963
		},
		{
			"buffer":0,
			"byteLength":377232,
			"byteOffset":1556844,
			"target":34962
		},
		{
			"buffer":0,
			"byteLength":377232,
			"byteOffset":1934076,
			"target":34962
		},
		{
			"buffer":0,
			"byteLength":251488,
			"byteOffset":2311308,
			"target":34962
		},
		{
			"buffer":0,
			"byteLength":74808,
			"byteOffset":2562796,
			"target":34963
		},
		{
			"buffer":0,
			"byteLength":49872,
			"byteOffset":2637604,
			"target":34962
		},
		{
			"buffer":0,
			"byteLength":49872,
			"byteOffset":2687476,
			"target":34962
		},
		{
			"buffer":0,
			"byteLength":16624,
			"byteOffset":2737348,
			"target":34962
		},
		{
			"buffer":0,
			"byteLength":33248,
			"byteOffset":2753972,
			"target":34962
		},
		{
			"buffer":0,
			"byteLength":11640,
			"byteOffset":2787220,
			"target":34963
		},
		{
			"buffer":0,
			"byteLength":52380,
			"byteOffset":2798860,
			"target":34962
		},
		{
			"buffer":0,
			"byteLength":52380,
			"byteOffset":2851240,
			"target":34962
		},
		{
			"buffer":0,
			"byteLength":17460,
			"byteOffset":2903620,
			"target":34962
		},
		{
			"buffer":0,
			"byteLength":34920,
			"byteOffset":2921080,
			"target":34962
		},
		{
			"buffer":0,
			"byteLength":11640,
			"byteOffset":2956000,
			"target":34963
		}
	],
	"buffers":[
		{
			"byteLength":2967640,
			"uri":"guitarraBoy3.bin"
		}
	]
}
